<svg xmlns="http://www.w3.org/2000/svg" viewBox="0 0 64 64" width="64" height="64">
  <rect width="64" height="64" rx="10" fill="#0b0f12"/>
  <g fill="#22d3ee" transform="translate(6 10)">
    <!-- simplified gamepad icon -->
    <path d="M22 0C9.85 0 0 8.95 0 20c0 6.05 5.5 11 12 11h20c6.5 0 12-4.95 12-11C44 8.95 34.15 0 22 0z"/>
    <circle cx="12" cy="14" r="2.2" fill="#0b0f12" />
    <circle cx="30" cy="14" r="2.2" fill="#0b0f12" />
    <rect x="8" y="10" width="4" height="8" rx="1" fill="#0b0f12" />
    <rect x="26" y="10" width="4" height="8" rx="1" fill="#0b0f12" />
    <!-- d-pad left -->
    <rect x="-1" y="22" width="6" height="4" rx="1" fill="#22d3ee" transform="translate(6,0)"/>
    <rect x="2" y="19" width="4" height="10" rx="1" fill="#22d3ee" transform="translate(6,0)"/>
  </g>
</svg>
